<svg width="11" height="15" viewBox="0 0 11 15" fill="none" xmlns="http://www.w3.org/2000/svg">
<path d="M11 1.87317C11 0.834146 10.1836 0 9.16667 0C8.14974 0 7.33333 0.834146 7.33333 1.87317C7.33333 2.56098 7.70573 3.17561 8.25 3.49756V5.04878L5.5 8.15122L2.75 5.04878V3.49756C3.29427 3.17561 3.66667 2.57561 3.66667 1.87317C3.66667 0.834146 2.85026 0 1.83333 0C0.816406 0 0 0.834146 0 1.87317C0 2.56098 0.372396 3.17561 0.916667 3.49756V5.78049L4.58333 9.90732V11.5024C4.03906 11.8244 3.66667 12.4244 3.66667 13.1268C3.66667 14.1659 4.48307 15 5.5 15C6.51693 15 7.33333 14.1659 7.33333 13.1268C7.33333 12.439 6.96094 11.8244 6.41667 11.5024V9.90732L10.0833 5.78049V3.49756C10.6276 3.17561 11 2.57561 11 1.87317ZM1.83333 0.95122C2.32031 0.95122 2.72135 1.36098 2.72135 1.85854C2.72135 2.3561 2.32031 2.76585 1.83333 2.76585C1.34635 2.76585 0.945312 2.3561 0.945312 1.85854C0.945312 1.36098 1.34635 0.95122 1.83333 0.95122ZM5.5 13.9902C5.01302 13.9902 4.61198 13.5805 4.61198 13.0829C4.61198 12.5854 5.01302 12.1756 5.5 12.1756C5.98698 12.1756 6.38802 12.5854 6.38802 13.0829C6.38802 13.5805 5.98698 13.9902 5.5 13.9902ZM9.16667 0.95122C9.65365 0.95122 10.0547 1.36098 10.0547 1.85854C10.0547 2.3561 9.65365 2.76585 9.16667 2.76585C8.67969 2.76585 8.27865 2.3561 8.27865 1.85854C8.27865 1.36098 8.67969 0.95122 9.16667 0.95122Z" fill="#E6E8EA"/>
</svg>
