<svg width="23" height="26" viewBox="0 0 23 26" fill="none" xmlns="http://www.w3.org/2000/svg">
<path d="M4.28067 7C4.28067 7 3.75217 7.7536 3.11867 9.0004M3.11867 9.0004C2.17717 10.8568 1 13.8088 1 16.9996C4.28183 16.9996 6.25 19 6.25 19C6.25 19 7.5625 25 11.5 25C15.4375 25 16.75 19 16.75 19C16.75 19 18.7193 16.9996 22 16.9996C22 13.8088 20.8252 10.8568 19.8825 9.0004M3.11867 9.0004C3.11867 9.0004 -0.3125 6.3328 3.1175 1C4.28067 1.6672 7.5625 4.3336 7.5625 4.3336C7.5625 4.3336 9.53183 3.0004 11.5 3.0004C13.4693 3.0004 15.4375 4.3324 15.4375 4.3324C15.4375 4.3324 18.7193 1.6684 20.0318 1C23.3125 6.334 19.8825 9.0004 19.8825 9.0004M18.7193 7C18.7193 7 19.2478 7.7536 19.8825 9.0004M10.3333 20.2H11.5M11.5 20.2H12.6667M11.5 20.2V21.4M7.41667 13.6L9.16667 15.4M15.5833 13.6L13.8333 15.4" stroke="#1D1D1D" stroke-width="2" stroke-linecap="round" stroke-linejoin="round"/>
</svg>
