<svg width="20" height="20" viewBox="0 0 20 20" fill="none" xmlns="http://www.w3.org/2000/svg">
<path d="M19.9604 12.7596C19.3268 14.8283 18.0571 16.6444 16.3319 17.9495C14.8173 19.0897 13.0149 19.7851 11.127 19.9577C9.23917 20.1302 7.3406 19.7731 5.64441 18.9263C3.94822 18.0796 2.52154 16.7767 1.52452 15.164C0.527497 13.5513 -0.000411107 11.6926 4.79949e-05 9.79642C-0.00676793 7.58323 0.712554 5.42892 2.04766 3.66399C3.35246 1.93842 5.16814 0.668437 7.23632 0.0347474C7.37263 -0.00723376 7.5178 -0.0112538 7.65623 0.0231198C7.79465 0.0574933 7.92109 0.12896 8.02194 0.229833C8.12279 0.330707 8.19424 0.457171 8.22861 0.595625C8.26297 0.734078 8.25895 0.879283 8.21698 1.01562C7.76474 2.51188 7.72682 4.10282 8.10727 5.61893C8.48771 7.13504 9.27226 8.51951 10.3773 9.62482C11.4824 10.7301 12.8665 11.5148 14.3823 11.8954C15.8981 12.2759 17.4887 12.238 18.9846 11.7856C19.1209 11.7437 19.2661 11.7396 19.4045 11.774C19.5429 11.8084 19.6694 11.8798 19.7702 11.9807C19.8711 12.0816 19.9425 12.2081 19.9769 12.3465C20.0113 12.485 20.0072 12.6302 19.9653 12.7665L19.9604 12.7596Z" fill="#1D1D1D"/>
</svg>
