<svg width="20" height="20" viewBox="0 0 20 20" fill="none" xmlns="http://www.w3.org/2000/svg">
<path d="M10.3439 14.8985L14.2814 17.3985C14.7892 17.7188 15.4142 17.2422 15.2657 16.6563L14.1251 12.1719C14.0943 12.0476 14.0992 11.9171 14.1393 11.7955C14.1793 11.6738 14.253 11.566 14.3517 11.4844L17.8829 8.53908C18.3439 8.15627 18.1095 7.38283 17.5079 7.34377L12.8986 7.04689C12.7728 7.03958 12.6519 6.99578 12.5506 6.92086C12.4493 6.84594 12.372 6.74314 12.3282 6.62502L10.6095 2.29689C10.564 2.17182 10.4811 2.06377 10.3721 1.98742C10.2631 1.91107 10.1332 1.87012 10.0001 1.87012C9.86702 1.87012 9.73715 1.91107 9.62814 1.98742C9.51912 2.06377 9.43624 2.17182 9.39074 2.29689L7.67199 6.62502C7.62819 6.74314 7.55092 6.84594 7.44964 6.92086C7.34836 6.99578 7.22745 7.03958 7.10168 7.04689L2.49231 7.34377C1.89074 7.38283 1.65637 8.15627 2.11731 8.53908L5.64856 11.4844C5.74726 11.566 5.82089 11.6738 5.86097 11.7955C5.90106 11.9171 5.90596 12.0476 5.87512 12.1719L4.82043 16.3281C4.64074 17.0313 5.39074 17.6016 5.99231 17.2188L9.65637 14.8985C9.75912 14.8331 9.87836 14.7984 10.0001 14.7984C10.1219 14.7984 10.2411 14.8331 10.3439 14.8985Z" fill="#E6E8EA"/>
</svg>
